<svg width="72" height="72" viewBox="0 0 72 72" fill="none" xmlns="http://www.w3.org/2000/svg">
<path d="M35.9994 0.421875C16.2193 0.421875 0.166016 16.4882 0.166016 36.2842C0.166016 56.0801 16.2193 72.1464 35.9994 72.1464C55.7794 72.1464 71.8327 56.0801 71.8327 36.2842C71.8327 16.4882 55.7794 0.421875 35.9994 0.421875ZM26.2885 51.6691L13.4243 38.7945C12.0268 37.3959 12.0268 35.1366 13.4243 33.7379C14.8218 32.3393 17.0793 32.3393 18.4769 33.7379L28.8327 44.0663L53.486 19.393C54.8835 17.9944 57.141 17.9944 58.5385 19.393C59.936 20.7917 59.936 23.051 58.5385 24.4496L31.341 51.6691C29.9793 53.0677 27.686 53.0677 26.2885 51.6691Z" fill="#3EAA28"/>
</svg>
